<svg width="60" height="60" viewBox="0 0 60 60" fill="none" xmlns="http://www.w3.org/2000/svg">
<path d="M31.1243 17.1244V19.0157C31.1243 19.5524 30.6629 19.9684 30.1262 19.9678C29.59 19.9672 29.1243 19.5516 29.1243 19.0154V17.1244C29.1243 16.5721 29.572 16.1244 30.1243 16.1244C30.6766 16.1244 31.1243 16.5721 31.1243 17.1244Z" fill="white"/>
<path d="M37.4904 19.366L36.5449 21.0038C36.2768 21.4681 35.6656 21.5952 35.201 21.3276C34.7359 21.0597 34.5443 20.4688 34.8127 20.004L35.7584 18.366C36.0345 17.8877 36.6461 17.7238 37.1244 18C37.6027 18.2761 37.7666 18.8877 37.4904 19.366Z" fill="white"/>
<path d="M40.244 25.4365L41.8827 24.4904C42.361 24.2142 42.5248 23.6026 42.2487 23.1244C41.9726 22.6461 41.361 22.4822 40.8827 22.7583L39.244 23.7044C38.7793 23.9727 38.6504 24.5822 38.9187 25.0469C39.187 25.5117 39.7793 25.7048 40.244 25.4365Z" fill="white"/>
<path d="M40.8827 37.4903L39.245 36.5448C38.7806 36.2767 38.6536 35.6656 38.9212 35.2009C39.189 34.7358 39.7799 34.5442 40.2447 34.8126L41.8827 35.7583C42.361 36.0344 42.5249 36.646 42.2488 37.1243C41.9726 37.6026 41.361 37.7665 40.8827 37.4903Z" fill="white"/>
<path d="M34.8122 40.244L35.7583 41.8827C36.0345 42.361 36.6461 42.5248 37.1243 42.2487C37.6026 41.9726 37.7665 41.361 37.4904 40.8827L36.5443 39.244C36.276 38.7793 35.6665 38.6504 35.2018 38.9187C34.737 39.187 34.5439 39.7793 34.8122 40.244Z" fill="white"/>
<path d="M29.1243 43.1244V41.233C29.1243 40.6963 29.5857 40.2803 30.1224 40.2809C30.6586 40.2815 31.1243 40.6971 31.1243 41.2333V43.1244C31.1243 43.6767 30.6766 44.1244 30.1243 44.1244C29.572 44.1244 29.1243 43.6767 29.1243 43.1244Z" fill="white"/>
<path d="M20.0047 34.8122L18.366 35.7583C17.8877 36.0345 17.7239 36.6461 18 37.1244C18.2761 37.6026 18.8877 37.7665 19.366 37.4904L21.0047 36.5443C21.4694 36.276 21.5983 35.6665 21.33 35.2018C21.0617 34.737 20.4694 34.5439 20.0047 34.8122Z" fill="white"/>
<path d="M17.1244 29.1243H19.0157C19.5524 29.1243 19.9684 29.5857 19.9678 30.1224C19.9672 30.6586 19.5516 31.1243 19.0154 31.1243H17.1244C16.5721 31.1243 16.1244 30.6766 16.1244 30.1243C16.1244 29.572 16.5721 29.1243 17.1244 29.1243Z" fill="white"/>
<path d="M21.0038 23.7038L19.3661 22.7583C18.8878 22.4822 18.2762 22.646 18 23.1243C17.7239 23.6026 17.8878 24.2142 18.3661 24.4903L20.004 25.436C20.4688 25.7044 21.0597 25.5128 21.3276 25.0477C21.5951 24.5831 21.4681 23.9719 21.0038 23.7038Z" fill="white"/>
<path fill-rule="evenodd" clip-rule="evenodd" d="M22.9999 17.8756C22.5216 18.1517 22.3578 18.7633 22.6339 19.2416L26.3888 25.7452C27.9088 28.3781 27.9088 31.6219 26.3888 34.2548L22.634 40.7582C22.3578 41.2365 22.5217 41.8481 23 42.1243C23.4783 42.4004 24.0899 42.2365 24.366 41.7582L28.1208 35.2547C29.6409 32.6219 32.4502 30.9999 35.4904 30.9999H43C43.5523 30.9999 44 30.5522 44 29.9999C44 29.4476 43.5523 28.9999 43 28.9999H35.4903C32.4501 28.9999 29.6408 27.378 28.1207 24.7451L24.3659 18.2416C24.0898 17.7633 23.4782 17.5995 22.9999 17.8756ZM29.9998 30.9999C30.5521 30.9999 30.9998 30.5522 30.9998 29.9999C30.9998 29.4477 30.5521 28.9999 29.9998 28.9999C29.4476 28.9999 28.9998 29.4477 28.9998 29.9999C28.9998 30.5522 29.4476 30.9999 29.9998 30.9999Z" fill="white"/>
<path fill-rule="evenodd" clip-rule="evenodd" d="M49 30C49 40.4934 40.4934 49 30 49C19.5066 49 11 40.4934 11 30C11 19.5066 19.5066 11 30 11C40.4934 11 49 19.5066 49 30ZM47 30C47 39.3888 39.3888 47 30 47C20.6112 47 13 39.3888 13 30C13 20.6112 20.6112 13 30 13C39.3888 13 47 20.6112 47 30Z" fill="white"/>
</svg>
