<svg width="30" height="26" viewBox="0 0 30 26" fill="none" xmlns="http://www.w3.org/2000/svg">
<path d="M0 1C0 0.447715 0.447715 0 1 0H29C29.5523 0 30 0.447715 30 1C30 1.55228 29.5523 2 29 2H1C0.447716 2 0 1.55228 0 1Z" fill="white"/>
<path d="M0 13C0 12.4477 0.447715 12 1 12H29C29.5523 12 30 12.4477 30 13C30 13.5523 29.5523 14 29 14H1C0.447716 14 0 13.5523 0 13Z" fill="white"/>
<path d="M1 24C0.447715 24 0 24.4477 0 25C0 25.5523 0.447716 26 1 26H29C29.5523 26 30 25.5523 30 25C30 24.4477 29.5523 24 29 24H1Z" fill="white"/>
</svg>
